<svg xmlns="http://www.w3.org/2000/svg" xmlns:xlink="http://www.w3.org/1999/xlink" width="25" height="25" viewBox="0 0 48 48" version="1.1">
<g id="surface1">
<path style=" fill:#B71C1C;" d="M 26 8 C 23.101563 8 20.601563 9.398438 19 11.699219 C 17.398438 9.398438 14.800781 8 12 8 C 7 8 3 12 3 17 C 3 24 19 36.800781 19 36.800781 C 19 36.800781 35 24 35 17 C 35 12 31 8 26 8 Z "></path>
<path style=" fill:#F44336;" d="M 39.300781 18.199219 C 37 17.699219 34.699219 18.300781 32.898438 19.800781 C 32 17.699219 30.300781 16.101563 28 15.5 C 24 14.601563 20 17 19.101563 21 C 17.800781 26.601563 28.199219 40 28.199219 40 C 28.199219 40 43.5 32.800781 44.800781 27.101563 C 45.699219 23.199219 43.300781 19.199219 39.300781 18.199219 Z "></path>
</g>
</svg>