<svg xmlns="http://www.w3.org/2000/svg" xmlns:xlink="http://www.w3.org/1999/xlink" width="25" height="25" viewBox="0 0 24 24" version="1.1">
<g id="surface1">
<path style=" " d="M 2 2 L 2 22 L 22 22 L 22 2 Z M 4 4 L 8 4 L 8 8 L 4 8 Z M 10 4 L 14 4 L 14 8 L 10 8 Z M 16 4 L 20 4 L 20 8 L 16 8 Z M 5 5 L 5 7 L 7 7 L 7 5 Z M 11 5 L 11 7 L 13 7 L 13 5 Z M 17 5 L 17 7 L 19 7 L 19 5 Z M 4 10 L 8 10 L 8 14 L 4 14 Z M 10 10 L 14 10 L 14 14 L 10 14 Z M 16 10 L 20 10 L 20 14 L 16 14 Z M 5 11 L 5 13 L 7 13 L 7 11 Z M 4 16 L 8 16 L 8 20 L 4 20 Z M 10 16 L 14 16 L 14 20 L 10 20 Z M 16 16 L 20 16 L 20 20 L 16 20 Z M 5 17 L 5 19 L 7 19 L 7 17 Z "></path>
</g>
</svg>